<?xml version="1.0" encoding="utf-8"?>
<!-- Generator: Adobe Illustrator 22.1.0, SVG Export Plug-In . SVG Version: 6.00 Build 0)  -->
<svg version="1.1" id="Layer_1" xmlns="http://www.w3.org/2000/svg" xmlns:xlink="http://www.w3.org/1999/xlink" x="0px" y="0px"
	 viewBox="0 0 1440 1044" style="enable-background:new 0 0 1440 1044;" xml:space="preserve">
<style type="text/css">
	.st0{fill:#253C95;}
	.st1{fill:#FFFFFF;}
</style>
<g
   id="g196"
   style="fill:#a16ae8;fill-opacity:1">
	<g
   id="g154"
   style="fill:#a16ae8;fill-opacity:1">
		<g
   id="g140"
   style="fill:#a16ae8;fill-opacity:1">
			<path
   d="M638.9,631.5v11.8h22.8c0.2,0,0.4,0.1,0.5,0.3c0.2,0.2,0.3,0.4,0.3,0.5v2.9c0,0.2-0.1,0.4-0.3,0.5     c-0.2,0.2-0.4,0.2-0.5,0.2h-27.4c-0.2,0-0.4-0.1-0.5-0.2c-0.2-0.2-0.2-0.4-0.2-0.5v-34.6c0-0.2,0.1-0.4,0.2-0.5     c0.2-0.2,0.4-0.2,0.5-0.2h26.8c0.2,0,0.4,0.1,0.5,0.3c0.2,0.2,0.3,0.4,0.3,0.5v2.9c0,0.2-0.1,0.4-0.3,0.5     c-0.2,0.2-0.4,0.3-0.5,0.3h-22.2v10.6h20.4c0.2,0,0.4,0.1,0.5,0.3c0.2,0.2,0.3,0.4,0.3,0.5v2.9c0,0.2-0.1,0.4-0.3,0.5     c-0.2,0.2-0.4,0.3-0.5,0.3L638.9,631.5z"
   id="path108"
   style="fill:#a16ae8;fill-opacity:1" />
			<path
   d="M681.8,633.3l2.5,5.7h0.4c1-2.6,1.9-4.5,2.5-5.7l10.4-20.8c0.2-0.4,0.4-0.6,0.5-0.7s0.4-0.1,0.8-0.1h4.2     c0.3,0,0.5,0.1,0.5,0.4c0,0.1-0.1,0.4-0.3,0.8l-17.6,34.9h-2.2l-17.6-34.9c-0.2-0.4-0.3-0.7-0.3-0.8c0-0.2,0.2-0.4,0.5-0.4h4.2     c0.3,0,0.5,0,0.6,0s0.2,0.1,0.4,0.2c0.1,0.1,0.2,0.3,0.4,0.6L681.8,633.3z"
   id="path110"
   style="fill:#a16ae8;fill-opacity:1" />
			<path
   d="M729.2,640.2h-20l-3.3,6.7c-0.2,0.4-0.4,0.6-0.5,0.7c-0.1,0.1-0.4,0.1-0.8,0.1h-3.9c-0.4,0-0.5-0.1-0.5-0.4     c0-0.1,0.1-0.3,0.3-0.7l17.6-34.9h2.2l17.6,34.9c0.2,0.4,0.3,0.7,0.3,0.7c0,0.3-0.2,0.4-0.5,0.4h-3.9c-0.3,0-0.5,0-0.6,0     c-0.1,0-0.2-0.1-0.4-0.2c-0.1-0.1-0.2-0.3-0.4-0.6L729.2,640.2z M711.5,635.7h15.4l-4.8-9.6c-0.3-0.5-0.7-1.4-1.1-2.5     s-0.8-2-1.1-2.9l-0.5-1.3H719c-1.1,3.2-2.1,5.4-2.7,6.6L711.5,635.7z"
   id="path112"
   style="fill:#a16ae8;fill-opacity:1" />
			<path
   d="M749.1,643.2h19.8c0.2,0,0.4,0.1,0.5,0.3c0.2,0.2,0.3,0.4,0.3,0.5v2.9c0,0.2-0.1,0.4-0.3,0.5c-0.2,0.2-0.4,0.2-0.5,0.2     h-24.4c-0.2,0-0.4,0-0.5-0.2c-0.2-0.2-0.2-0.4-0.2-0.5v-34.6c0-0.2,0.1-0.4,0.2-0.5c0.2-0.2,0.4-0.2,0.5-0.2h3.8     c0.2,0,0.4,0.1,0.5,0.2c0.2,0.2,0.2,0.4,0.2,0.5L749.1,643.2z"
   id="path114"
   style="fill:#a16ae8;fill-opacity:1" />
			<path
   d="M776.9,647.7c-0.2,0-0.4,0-0.5-0.2c-0.2-0.2-0.2-0.4-0.2-0.5v-34.6c0-0.2,0.1-0.4,0.2-0.5c0.2-0.2,0.4-0.2,0.5-0.2h14.8     c5.6,0,10.2,1.6,13.9,4.9s5.5,7.7,5.5,13.1c0,5.5-1.7,9.9-5.1,13.1s-8.2,4.9-14.2,4.9H776.9z M781.5,616.4v26.9h10.4     c4.6,0,8.1-1.2,10.4-3.6s3.5-5.7,3.5-9.9c0-4.1-1.3-7.4-4-9.8c-2.6-2.4-6.1-3.6-10.2-3.6L781.5,616.4z"
   id="path116"
   style="fill:#a16ae8;fill-opacity:1" />
			<path
   d="M842.1,640.2h-20l-3.3,6.7c-0.2,0.4-0.4,0.6-0.5,0.7c-0.1,0.1-0.4,0.1-0.8,0.1h-3.9c-0.4,0-0.5-0.1-0.5-0.4     c0-0.1,0.1-0.3,0.3-0.7l17.6-34.9h2.2l17.6,34.9c0.2,0.4,0.3,0.7,0.3,0.7c0,0.3-0.2,0.4-0.5,0.4h-3.9c-0.3,0-0.5,0-0.6,0     s-0.2-0.1-0.4-0.2c-0.1-0.1-0.2-0.3-0.4-0.6L842.1,640.2z M824.4,635.7h15.4l-4.8-9.6c-0.3-0.5-0.7-1.4-1.1-2.5s-0.8-2-1.1-2.9     l-0.5-1.3h-0.4c-1.1,3.2-2.1,5.4-2.7,6.6L824.4,635.7z"
   id="path118"
   style="fill:#a16ae8;fill-opacity:1" />
			<path
   d="M858.9,635.6c0.5,0,0.8,0.3,0.8,0.8c0,4.9,3.8,7.3,11.3,7.3c3.5,0,6.1-0.7,7.7-1.9c1.6-1.3,2.5-2.9,2.5-5     c0-2.9-2-4.5-6.1-4.8l-10-0.7c-7-0.5-10.5-3.5-10.5-8.8c0-3.1,1.3-5.7,4-8c2.6-2.3,6.4-3.4,11.3-3.4c5.2,0,9.1,1,11.5,3.1     s3.7,4.8,3.7,8.2c0,0.4-0.3,0.6-0.9,0.6h-3.5c-0.5,0-0.8-0.4-0.9-1c-0.2-1.8-1-3.3-2.6-4.5c-1.6-1.2-4-1.8-7.2-1.8     c-3.1,0-5.5,0.7-7.3,1.9s-2.7,2.9-2.7,4.9c0,2.6,1.9,4,5.7,4.3l9.8,0.7c3.9,0.3,6.7,1.3,8.5,3c1.7,1.7,2.6,3.8,2.6,6.4     c0,2.9-1.3,5.5-3.8,7.9c-2.6,2.4-6.4,3.5-11.5,3.5c-5.3,0-9.4-1-12.2-3.2c-2.9-2.2-4.3-4.9-4.3-8.2v-0.6c0-0.4,0.2-0.7,0.7-0.7     H858.9z"
   id="path120"
   style="fill:#a16ae8;fill-opacity:1" />
			<path
   d="M902,640.9h17.8c0.2,0,0.4,0.1,0.5,0.3c0.2,0.2,0.3,0.4,0.3,0.5v5.2c0,0.2-0.1,0.4-0.2,0.5c-0.2,0.2-0.4,0.2-0.5,0.2     h-25.2c-0.2,0-0.4,0-0.5-0.2c-0.1-0.2-0.2-0.4-0.2-0.5v-34.6c0-0.2,0.1-0.4,0.2-0.5c0.1-0.2,0.3-0.2,0.5-0.2h6.7     c0.2,0,0.4,0.1,0.5,0.2c0.1,0.2,0.2,0.4,0.2,0.5V640.9z"
   id="path122"
   style="fill:#a16ae8;fill-opacity:1" />
			<path
   d="M951.3,641.4h-17.5l-2.6,5.5c-0.2,0.5-0.7,0.8-1.3,0.8h-7.1c-0.3,0-0.5-0.1-0.5-0.4c0-0.2,0.1-0.4,0.2-0.7l16.9-34.9h6.2     l16.9,34.9c0.2,0.3,0.2,0.5,0.2,0.7c0,0.3-0.2,0.4-0.5,0.4h-7.1c-0.6,0-1-0.2-1.3-0.8L951.3,641.4z M936.6,635h11.9l-3.2-6.7     c-0.4-0.8-0.7-1.7-1.1-2.8s-0.7-2-1-2.6l-0.4-1h-0.4c-0.8,2.6-1.7,4.7-2.5,6.5L936.6,635z"
   id="path124"
   style="fill:#a16ae8;fill-opacity:1" />
			<path
   d="M995.6,612.4c0-0.2,0.1-0.4,0.2-0.5c0.2-0.2,0.4-0.2,0.5-0.2h6.7c0.2,0,0.4,0.1,0.5,0.2c0.2,0.2,0.2,0.4,0.2,0.5v18.1     c0,5.7-1.6,10.1-4.9,13.1c-3.3,3.1-7.7,4.6-13.4,4.6s-10.1-1.5-13.4-4.6c-3.3-3.1-4.9-7.4-4.9-13.1v-18.1c0-0.2,0.1-0.4,0.2-0.5     c0.2-0.2,0.4-0.2,0.5-0.2h6.7c0.2,0,0.4,0.1,0.5,0.2c0.2,0.2,0.2,0.4,0.2,0.5v18c0,7.4,3.4,11,10.2,11s10.3-3.7,10.2-11     L995.6,612.4z"
   id="path126"
   style="fill:#a16ae8;fill-opacity:1" />
			<path
   d="M1012.1,612.4c0-0.2,0.1-0.4,0.2-0.5c0.1-0.2,0.3-0.2,0.5-0.2h16.7c4.4,0,8,1.1,10.8,3.4c2.8,2.3,4.1,5.3,4.1,9.2     c0,2.6-0.7,4.9-2.2,6.7c-1.4,1.9-3.4,3.2-5.9,4.1v0.1c0.7,0.8,1.4,1.6,1.9,2.4l6.1,8.9c0.2,0.3,0.4,0.5,0.4,0.7     c0,0.3-0.2,0.4-0.5,0.4h-8c-0.4,0-0.7-0.2-1-0.6l-7.3-10.7h-7.7V647c0,0.2-0.1,0.4-0.2,0.5c-0.1,0.2-0.3,0.2-0.5,0.2h-6.7     c-0.2,0-0.4,0-0.5-0.2c-0.1-0.2-0.2-0.4-0.2-0.5L1012.1,612.4z M1020.2,618.5v11.4h8.7c2.3,0,4.1-0.5,5.4-1.5s2-2.4,2-4.1     c0-1.7-0.7-3.1-2-4.1c-1.3-1-3.1-1.6-5.3-1.6L1020.2,618.5z"
   id="path128"
   style="fill:#a16ae8;fill-opacity:1" />
			<path
   d="M1059.3,632.8v8.2h21.1c0.2,0,0.4,0.1,0.5,0.3c0.2,0.2,0.3,0.4,0.3,0.5v5.2c0,0.2-0.1,0.4-0.2,0.5     c-0.2,0.2-0.4,0.2-0.5,0.2h-28.6c-0.2,0-0.4-0.1-0.5-0.2c-0.1-0.2-0.2-0.4-0.2-0.5v-34.6c0-0.2,0.1-0.4,0.2-0.5     c0.1-0.2,0.3-0.2,0.5-0.2h28.2c0.2,0,0.4,0.1,0.5,0.3c0.2,0.2,0.3,0.4,0.3,0.5v5.2c0,0.2-0.1,0.4-0.2,0.5     c-0.2,0.2-0.4,0.3-0.5,0.3h-20.8v7.3h19c0.2,0,0.4,0.1,0.5,0.3c0.2,0.2,0.3,0.4,0.3,0.5v5.2c0,0.2-0.1,0.4-0.2,0.5     c-0.2,0.2-0.4,0.3-0.5,0.3L1059.3,632.8z"
   id="path130"
   style="fill:#a16ae8;fill-opacity:1" />
			<path
   d="M1115.7,626.3c-0.5,0-0.9-0.3-1-1c-0.3-2.1-1.3-3.8-3.1-5.2c-1.8-1.4-4-2.1-6.7-2.1c-3.2,0-5.8,1.1-8,3.3     c-2.2,2.2-3.2,5-3.2,8.5s1.1,6.2,3.2,8.5c2.1,2.2,4.8,3.3,8,3.3c2.7,0,4.9-0.6,6.7-1.8c1.7-1.2,2.8-2.8,3.1-4.9     c0.1-0.7,0.5-1,1.1-1h6c0.7,0,1,0.3,1,0.9c0,3.9-1.7,7.1-5,9.7c-3.4,2.6-7.7,3.8-13,3.8c-5.5,0-10.1-1.7-13.9-5.2     c-3.7-3.5-5.6-8-5.6-13.4c0-5.5,1.9-9.9,5.6-13.4c3.7-3.5,8.3-5.2,13.9-5.2c5.5,0,9.8,1.4,13,4.3c3.2,2.9,4.9,6.2,4.9,10     c0,0.5-0.3,0.8-1,0.8L1115.7,626.3z"
   id="path132"
   style="fill:#a16ae8;fill-opacity:1" />
			<path
   d="M1148.4,627.9l16.4,18.8c0.2,0.2,0.3,0.4,0.3,0.5c0,0.3-0.2,0.4-0.5,0.4h-8.6c-0.5,0-1-0.2-1.3-0.5l-11.9-13.7l-5.3,5.1     v8.4c0,0.2-0.1,0.4-0.2,0.5c-0.1,0.2-0.3,0.2-0.5,0.2h-6.7c-0.2,0-0.4-0.1-0.5-0.2c-0.1-0.2-0.2-0.4-0.2-0.5v-34.6     c0-0.2,0.1-0.4,0.2-0.5c0.1-0.2,0.3-0.2,0.5-0.2h6.7c0.2,0,0.4,0.1,0.5,0.2c0.1,0.2,0.2,0.4,0.2,0.5v15.9h0.1     c0.7-0.8,1.4-1.6,2.3-2.3l13.9-13.6c0.4-0.4,1-0.7,1.6-0.7h8.5c0.4,0,0.5,0.1,0.5,0.4c0,0.2-0.1,0.4-0.4,0.7L1148.4,627.9z"
   id="path134"
   style="fill:#a16ae8;fill-opacity:1" />
			<path
   d="M1195.4,641.4h-17.5l-2.6,5.5c-0.2,0.5-0.7,0.8-1.3,0.8h-7.1c-0.3,0-0.5-0.1-0.5-0.4c0-0.2,0.1-0.4,0.2-0.7l16.9-34.9     h6.2l16.9,34.9c0.2,0.3,0.2,0.5,0.2,0.7c0,0.3-0.2,0.4-0.5,0.4h-7.1c-0.6,0-1-0.2-1.3-0.8L1195.4,641.4z M1180.7,635h11.9     l-3.2-6.7c-0.4-0.8-0.7-1.7-1.1-2.8c-0.4-1.1-0.7-2-1-2.6l-0.4-1h-0.4c-0.8,2.6-1.7,4.7-2.5,6.5L1180.7,635z"
   id="path136"
   style="fill:#a16ae8;fill-opacity:1" />
			<path
   d="M1216.8,635.5c0.7,0,1.1,0.3,1.2,0.9c0.7,3.3,3.6,5,8.9,5c2.8,0,4.9-0.5,6.2-1.4s2.1-2,2.1-3.4c0-2-1.6-3.2-4.8-3.5     l-9.4-0.8c-3.7-0.3-6.4-1.3-8.3-2.9s-2.9-3.8-2.9-6.5c0-3.3,1.4-6.1,4.3-8.5c2.8-2.3,6.8-3.5,11.8-3.5c5.2,0,9.2,1,11.8,3.1     c2.6,2,4,4.6,4,7.7c0,0.7-0.4,1-1.1,1h-5.9c-0.6,0-1-0.3-1.1-0.9c-0.5-2.8-3.1-4.1-7.7-4.1c-2.5,0-4.4,0.4-5.8,1.3     s-2.1,2-2.1,3.4c0,1.9,1.4,2.8,4.4,3.1l9.3,0.8c4,0.4,7,1.4,8.9,3.2s2.9,4,2.9,6.7c0,3.2-1.4,5.9-4.2,8.3s-6.9,3.5-12.3,3.5     c-5.3,0-9.4-1-12.5-3.2c-3.1-2.2-4.6-4.8-4.6-7.9v-0.5c0-0.3,0.1-0.5,0.4-0.7c0.2-0.2,0.5-0.3,0.8-0.3L1216.8,635.5z"
   id="path138"
   style="fill:#a16ae8;fill-opacity:1" />
		</g>
		<g
   id="g144"
   style="fill:#a16ae8;fill-opacity:1">
			<path
   d="M232.4,537.2c-5.8-2.9-10.7-9.7-13.9-16.6c-3.9-8.6-5.3-18.4-5.5-27.7c-0.4-19.3,6.3-37,15.8-53.4     c13.2-22.7,32-41.3,55.4-53.2c45.5-23.1,100.3-18.3,149-10.2c25.6,4.2,50.9,10,76.2,15.6c22.1,4.8,44.4,9.8,66.9,11.9     c9,0.9,18.2,1.3,27.2,0.5c10.6-0.9,26.6-2.4,32-12.9c8.4-16.6-12.4-34.1-24.7-41.2c-17.9-10.4-39.2-13.5-59.6-11.1     c-38.7,4.6-78.1,23.6-103.1,54c-11.3,13.7-24.2,33.2-18.4,51.9c6.4,20.5,31.8,30.9,50.8,35.6c10.9,2.7,22.2,3.8,33.4,3     c4.1-0.3,6.5-2.7,3.6-6.4c-3.2-4.2-9.6-6.8-14.7-7.3c-51.6-5.6-103,11-146,39.1c-39.6,25.9-78.5,63-77.2,114     c1.3,53.5,55.6,80.2,102.9,83.1c24.3,1.5,48.8-2.1,72-9.4c23.6-7.4,45-19.4,66-32.2c46.2-28.1,87.9-62.7,132.7-92.8     c2.4-1.6-5.9-6.5-8.5-4.6c-36.7,26.4-73.1,53.6-111.6,77.6c-39.9,24.9-82.2,48.4-130.1,51.4c-21.2,1.3-43.7-0.4-63.4-9     c-18.6-8.1-31.1-23.6-35-43.6c-9.2-47.2,24.7-86.5,60.1-112.5c41.9-30.8,93.5-53.3,146.5-47.5c-3.7-4.6-7.4-9.2-11.1-13.7     c-9.2,0.6-18.4-0.1-27.1-3.1c-6.6-2.3-13.7-5.3-17.5-11.5c-9.8-16,3.9-37.3,13.8-49.7c11.1-13.9,25.4-25.3,40.7-34.2     c16.2-9.5,34-17.5,52.4-21.7c18.8-4.3,39-2.7,53.9,10.6c6.7,6,13.9,15.5,11.3,25.1c-2.3,8.4-11,10.7-18.6,12.2     c-17.5,3.7-35.5,1.7-53-1.1c-47.7-7.6-94.1-21.5-141.8-28.9c-48.4-7.5-100.9-9.7-146.3,11.7c-23,10.8-42.1,27.9-56.8,48.5     c-10.1,14.3-18.4,29.9-21,47.4c-2.7,17.9-0.6,36.8,10.2,51.8c5.5,7.7,12.7,14,21.2,18.3c3.8,2,12.7,5.8,16.6,2.2     C242.4,543.6,235.1,538.5,232.4,537.2L232.4,537.2z"
   id="path142"
   style="fill:#a16ae8;fill-opacity:1" />
		</g>
		<g
   id="g148"
   style="fill:#a16ae8;fill-opacity:1">
			<path
   d="M516.2,665.1c67.2-45.1,136.3-88.2,197.3-141.7c30.8-27,61.2-55.2,89.2-85.2c13.7-14.6,26.9-30.1,37-47.5     c4.3-7.4,10.8-17.8,7.7-26.5c-3.8-10.8-17.9-16.3-28.5-16.6c-12.4-0.4-23.9,5.9-34.5,11.6c-10.4,5.5-20.3,11.8-29.8,18.7     c-19.1,13.8-36.6,29.9-52.6,47.1c-16.1,17.2-31.8,35.2-45.5,54.3c-13.1,18.3-25.6,40.1-26.6,63.1c-1.1,24.4,22.1,37.2,43.3,40.7     c10.8,1.8,22,0.8,32.8-0.5c13-1.5,25.9-4,38.6-7.2c51.6-13.1,102.4-29.3,154.1-42.2c50.6-12.6,102.1-22.2,154.4-23     c25.6-0.4,51.2,1.4,76.4,6.1c23.8,4.4,48.3,11.2,69.8,22.6c9.2,4.9,17.2,10.6,22.7,19.5c2.9,4.7,10.2,7.4,15.3,7.6     c4.4,0.1,8.3-2.5,3.9-6.6c-17.1-15.8-37.7-26.3-59.4-34.1c-22.6-8.1-46.2-13.7-70-17c-47.6-6.5-96-4.4-143.5,2.7     c-51.6,7.8-102.1,21.4-152.4,34.9c-24.9,6.7-49.8,13.6-74.9,19.6c-22.7,5.4-48.1,11.2-71.5,7.5c-6.7-1.1-12.6-2.9-15.9-9.3     c-5.4-10.4-1.8-23.4,1.7-33.7c7.5-21.9,21.1-41,35.7-58.7c28.4-34.3,59.4-68,96.8-92.6c9.3-6.1,19.1-11.9,29.3-16.4     c2.7-1.2,5.4-2.3,8.2-3c1.4-0.3,2.7-0.6,4.2-0.6c0.6,0,0.3,0.2-0.6-0.4c4.1,2.6,2.2,10.4,0.9,14.4c-5.9,17.6-17.5,33.1-29.1,47.2     c-24.8,30.2-53.6,57.2-82,83.9c-26.3,24.8-53.8,48-82.8,69.6c-31.1,23.2-63.4,44.6-95,67c-10.1,7.1-20.2,14.3-30.2,21.5     C508.7,663.2,514.4,666.2,516.2,665.1L516.2,665.1z"
   id="path146"
   style="fill:#a16ae8;fill-opacity:1" />
		</g>
		<g
   id="g152"
   style="fill:#a16ae8;fill-opacity:1">
			<path
   d="M1248.1,582.3c2.8,0,3.2-2.1,1.6-4c-2.1-2.3-6-3.6-9.1-3.6c-2.8,0-3.2,2.1-1.6,4C1241.1,581,1245.1,582.3,1248.1,582.3     L1248.1,582.3z"
   id="path150"
   style="fill:#a16ae8;fill-opacity:1" />
		</g>
	</g>
	<g
   id="g194"
   style="fill:#a16ae8;fill-opacity:1">
		<path
   d="M637.9,677.3c0.3,0,0.4,0.2,0.4,0.4c0,2.4,1.9,3.7,5.6,3.7c1.7,0,3-0.3,3.8-1c0.8-0.6,1.2-1.5,1.2-2.5    c0-1.4-1-2.2-3.1-2.4l-5-0.4c-3.5-0.2-5.3-1.7-5.3-4.4c0-1.5,0.7-2.9,2-4s3.2-1.7,5.7-1.7c2.6,0,4.5,0.5,5.8,1.6    c1.2,1.1,1.8,2.4,1.8,4.1c0,0.2-0.2,0.3-0.5,0.3h-1.8c-0.3,0-0.4-0.2-0.4-0.5c-0.1-0.9-0.5-1.6-1.3-2.3c-0.8-0.6-2-0.9-3.6-0.9    c-1.5,0-2.7,0.3-3.6,1c-0.9,0.6-1.4,1.4-1.4,2.4c0,1.3,1,2,2.8,2.2l4.9,0.4c2,0.2,3.4,0.7,4.2,1.5s1.3,1.9,1.3,3.2    c0,1.4-0.6,2.8-1.9,4c-1.3,1.2-3.2,1.8-5.8,1.8c-2.6,0-4.7-0.5-6.1-1.6c-1.4-1.1-2.2-2.5-2.2-4.1v-0.3c0-0.2,0.1-0.3,0.4-0.3    H637.9z"
   id="path156"
   style="fill:#a16ae8;fill-opacity:1" />
		<path
   d="M676,665c2.8,0,5.1,0.8,7,2.5c1.9,1.7,2.8,3.9,2.8,6.8s-0.9,5.1-2.8,6.8c-1.9,1.7-4.2,2.5-7,2.5c-2.8,0-5.1-0.8-6.9-2.5    c-1.9-1.7-2.8-3.9-2.8-6.8c0-2.8,0.9-5.1,2.8-6.8C671,665.9,673.3,665,676,665L676,665z M676,667.2c-2,0-3.7,0.6-5,1.9s-2,3-2,5.1    c0,2.1,0.7,3.8,2,5.1s3,1.9,5,1.9s3.7-0.6,5-1.9c1.3-1.3,2-3,2-5.1c0-2.2-0.7-3.9-2-5.1C679.8,667.9,678.1,667.2,676,667.2    L676,667.2z"
   id="path158"
   style="fill:#a16ae8;fill-opacity:1" />
		<path
   d="M701.8,683.3c-0.1,0-0.2,0-0.3-0.1s-0.1-0.2-0.1-0.3v-17.3c0-0.1,0-0.2,0.1-0.3s0.2-0.1,0.3-0.1h13.1    c0.1,0,0.2,0.1,0.3,0.2s0.2,0.2,0.2,0.3v1.4c0,0.1-0.1,0.2-0.2,0.3s-0.2,0.2-0.3,0.2h-10.8v5.9h9.6c0.1,0,0.2,0.1,0.3,0.1    c0.1,0.1,0.2,0.2,0.2,0.3v1.4c0,0.1-0.1,0.2-0.2,0.3s-0.2,0.1-0.3,0.1h-9.6v7.2c0,0.1,0,0.2-0.1,0.3c-0.1,0.1-0.2,0.1-0.3,0.1    H701.8z"
   id="path160"
   style="fill:#a16ae8;fill-opacity:1" />
		<path
   d="M728.7,667.6c-0.1,0-0.2-0.1-0.3-0.2c-0.1-0.1-0.2-0.2-0.2-0.3v-1.4c0-0.1,0.1-0.2,0.2-0.3c0.1-0.1,0.2-0.2,0.3-0.2h16.9    c0.1,0,0.2,0.1,0.3,0.2c0.1,0.1,0.2,0.2,0.2,0.3v1.4c0,0.1-0.1,0.2-0.2,0.3c-0.1,0.1-0.2,0.2-0.3,0.2h-7.1V683    c0,0.1,0,0.2-0.1,0.3c-0.1,0.1-0.1,0.1-0.2,0.1h-1.9c-0.1,0-0.2,0-0.2-0.1s-0.1-0.2-0.1-0.3v-15.4H728.7L728.7,667.6z"
   id="path162"
   style="fill:#a16ae8;fill-opacity:1" />
		<path
   d="M780.3,683.3h-0.8l-5.3-12.3l-0.2-0.7h-0.1c-0.1,0.2-0.1,0.5-0.2,0.7l-5.3,12.3h-0.8l-8.5-17.4c-0.1-0.1-0.1-0.3-0.1-0.4    c0-0.1,0.1-0.2,0.2-0.2h2.1h0.2c0,0,0.1,0,0.1,0c0.1,0,0.1,0.1,0.2,0.1c0,0.1,0.1,0.1,0.1,0.2l5.1,10.4c0.2,0.3,0.3,0.6,0.5,1.1    l0.4,1.1l0.1,0.4h0.1c0.3-0.9,0.5-1.7,0.8-2.3l4.8-11h0.8l4.8,11l0.8,2.3h0.1c0.3-1.1,0.6-2,0.9-2.6l5.1-10.4    c0.1-0.2,0.2-0.3,0.2-0.3c0.1,0,0.2-0.1,0.4-0.1h2.1c0.2,0,0.2,0.1,0.2,0.2c0,0.1,0,0.2-0.1,0.4L780.3,683.3z"
   id="path164"
   style="fill:#a16ae8;fill-opacity:1" />
		<path
   d="M813.3,679.6h-10l-1.6,3.3c-0.1,0.2-0.2,0.3-0.2,0.3c-0.1,0-0.2,0.1-0.4,0.1h-2c-0.2,0-0.3-0.1-0.3-0.2    c0,0,0.1-0.1,0.1-0.4l8.8-17.4h1.1l8.8,17.4c0.1,0.2,0.1,0.3,0.1,0.4c0,0.2-0.1,0.2-0.3,0.2h-2c-0.1,0-0.2,0-0.3,0s-0.1,0-0.2-0.1    c-0.1-0.1-0.1-0.1-0.2-0.3L813.3,679.6z M804.5,677.3h7.7l-2.4-4.8c-0.2-0.3-0.3-0.7-0.6-1.2s-0.4-1-0.6-1.4l-0.2-0.6h-0.2    c-0.6,1.6-1,2.7-1.3,3.3L804.5,677.3z"
   id="path166"
   style="fill:#a16ae8;fill-opacity:1" />
		<path
   d="M832.3,665.7c0-0.1,0-0.2,0.1-0.3s0.2-0.1,0.3-0.1h7.7c2.2,0,4,0.5,5.3,1.6c1.4,1.1,2,2.5,2,4.4c0,1.4-0.4,2.6-1.3,3.5    c-0.8,0.9-2,1.6-3.4,1.9v0.1c0.4,0.4,0.8,0.8,1.1,1.3l3.4,4.7c0.1,0.2,0.2,0.3,0.2,0.4c0,0.1-0.1,0.2-0.2,0.2h-2.5    c-0.2,0-0.3-0.1-0.4-0.2l-4.4-6.1H835v6c0,0.1,0,0.2-0.1,0.3c-0.1,0.1-0.2,0.1-0.3,0.1h-1.9c-0.1,0-0.2,0-0.3-0.1    s-0.1-0.2-0.1-0.3V665.7z M834.9,667.7v7.2h5.3c1.4,0,2.5-0.3,3.4-1s1.3-1.5,1.3-2.7c0-1.2-0.4-2.1-1.3-2.7s-2-1-3.5-1    L834.9,667.7z"
   id="path168"
   style="fill:#a16ae8;fill-opacity:1" />
		<path
   d="M865.9,675.2v5.9h11.4c0.1,0,0.2,0.1,0.3,0.2c0.1,0.1,0.1,0.2,0.1,0.3v1.4c0,0.1-0.1,0.2-0.1,0.3    c-0.1,0.1-0.2,0.1-0.3,0.1h-13.7c-0.1,0-0.2,0-0.3-0.1c-0.1-0.1-0.1-0.2-0.1-0.3v-17.3c0-0.1,0-0.2,0.1-0.3s0.2-0.1,0.3-0.1H877    c0.1,0,0.2,0.1,0.3,0.2c0.1,0.1,0.2,0.2,0.2,0.3v1.4c0,0.1-0.1,0.2-0.2,0.3c-0.1,0.1-0.2,0.2-0.3,0.2h-11.1v5.3h10.2    c0.1,0,0.2,0.1,0.3,0.2s0.2,0.2,0.2,0.3v1.4c0,0.1-0.1,0.2-0.2,0.3s-0.2,0.2-0.3,0.2L865.9,675.2z"
   id="path170"
   style="fill:#a16ae8;fill-opacity:1" />
		<path
   d="M911.7,683.3c-0.1,0-0.2,0-0.3-0.1s-0.1-0.2-0.1-0.3v-17.3c0-0.1,0-0.2,0.1-0.3s0.2-0.1,0.3-0.1h7.4    c2.8,0,5.1,0.8,6.9,2.5c1.8,1.7,2.8,3.8,2.8,6.6c0,2.8-0.8,4.9-2.5,6.6s-4.1,2.4-7.1,2.4H911.7z M914,667.7v13.4h5.2    c2.3,0,4-0.6,5.2-1.8s1.8-2.8,1.8-5c0-2.1-0.7-3.7-2-4.9c-1.3-1.2-3-1.8-5.1-1.8L914,667.7z"
   id="path172"
   style="fill:#a16ae8;fill-opacity:1" />
		<path
   d="M947.1,675.2v5.9h11.4c0.1,0,0.2,0.1,0.3,0.2c0.1,0.1,0.1,0.2,0.1,0.3v1.4c0,0.1-0.1,0.2-0.1,0.3    c-0.1,0.1-0.2,0.1-0.3,0.1h-13.7c-0.1,0-0.2,0-0.3-0.1c-0.1-0.1-0.1-0.2-0.1-0.3v-17.3c0-0.1,0-0.2,0.1-0.3s0.2-0.1,0.3-0.1h13.4    c0.1,0,0.2,0.1,0.3,0.2c0.1,0.1,0.2,0.2,0.2,0.3v1.4c0,0.1-0.1,0.2-0.2,0.3c-0.1,0.1-0.2,0.2-0.3,0.2h-11.1v5.3h10.2    c0.1,0,0.2,0.1,0.3,0.2s0.2,0.2,0.2,0.3v1.4c0,0.1-0.1,0.2-0.2,0.3s-0.2,0.2-0.3,0.2L947.1,675.2z"
   id="path174"
   style="fill:#a16ae8;fill-opacity:1" />
		<path
   d="M980.1,676.1l1.2,2.8h0.2c0.5-1.3,0.9-2.3,1.2-2.8l5.2-10.4c0.1-0.2,0.2-0.3,0.2-0.3c0.1,0,0.2-0.1,0.4-0.1h2.1    c0.1,0,0.2,0.1,0.2,0.2c0,0.1-0.1,0.2-0.1,0.4l-8.8,17.4h-1.1l-8.8-17.4c-0.1-0.2-0.1-0.3-0.1-0.4c0-0.1,0.1-0.2,0.2-0.2h2.1    c0.1,0,0.2,0,0.3,0s0.1,0,0.2,0.1c0.1,0.1,0.1,0.2,0.2,0.3L980.1,676.1z"
   id="path176"
   style="fill:#a16ae8;fill-opacity:1" />
		<path
   d="M1008.1,675.2v5.9h11.4c0.1,0,0.2,0.1,0.3,0.2c0.1,0.1,0.1,0.2,0.1,0.3v1.4c0,0.1-0.1,0.2-0.1,0.3    c-0.1,0.1-0.2,0.1-0.3,0.1h-13.7c-0.1,0-0.2,0-0.3-0.1c-0.1-0.1-0.1-0.2-0.1-0.3v-17.3c0-0.1,0-0.2,0.1-0.3s0.2-0.1,0.3-0.1h13.4    c0.1,0,0.2,0.1,0.3,0.2c0.1,0.1,0.2,0.2,0.2,0.3v1.4c0,0.1-0.1,0.2-0.2,0.3c-0.1,0.1-0.2,0.2-0.3,0.2h-11.1v5.3h10.2    c0.1,0,0.2,0.1,0.3,0.2s0.2,0.2,0.2,0.3v1.4c0,0.1-0.1,0.2-0.2,0.3s-0.2,0.2-0.3,0.2L1008.1,675.2z"
   id="path178"
   style="fill:#a16ae8;fill-opacity:1" />
		<path
   d="M1037.9,681.1h9.9c0.1,0,0.2,0.1,0.3,0.2s0.2,0.2,0.2,0.3v1.4c0,0.1-0.1,0.2-0.2,0.3c-0.1,0.1-0.2,0.1-0.3,0.1h-12.2    c-0.1,0-0.2,0-0.3-0.1s-0.1-0.2-0.1-0.3v-17.3c0-0.1,0-0.2,0.1-0.3s0.2-0.1,0.3-0.1h1.9c0.1,0,0.2,0,0.3,0.1s0.1,0.2,0.1,0.3    L1037.9,681.1z"
   id="path180"
   style="fill:#a16ae8;fill-opacity:1" />
		<path
   d="M1070.8,665c2.8,0,5.1,0.8,7,2.5c1.9,1.7,2.8,3.9,2.8,6.8s-0.9,5.1-2.8,6.8c-1.9,1.7-4.2,2.5-7,2.5    c-2.8,0-5.1-0.8-6.9-2.5c-1.9-1.7-2.8-3.9-2.8-6.8c0-2.8,0.9-5.1,2.8-6.8C1065.7,665.9,1068,665,1070.8,665L1070.8,665z     M1070.8,667.2c-2,0-3.7,0.6-5,1.9s-2,3-2,5.1c0,2.1,0.7,3.8,2,5.1s3,1.9,5,1.9s3.7-0.6,5-1.9c1.3-1.3,2-3,2-5.1    c0-2.2-0.7-3.9-2-5.1C1074.5,667.9,1072.8,667.2,1070.8,667.2L1070.8,667.2z"
   id="path182"
   style="fill:#a16ae8;fill-opacity:1" />
		<path
   d="M1096.5,683.3c-0.1,0-0.2,0-0.3-0.1c-0.1-0.1-0.1-0.2-0.1-0.3v-17.3c0-0.1,0-0.2,0.1-0.3s0.2-0.1,0.3-0.1h7.4    c2.2,0,3.9,0.6,5.3,1.7c1.4,1.2,2,2.8,2,4.8c0,2-0.7,3.5-2.1,4.7s-3.1,1.7-5.3,1.7h-5.1v4.6c0,0.1,0,0.2-0.1,0.3    c-0.1,0.1-0.2,0.1-0.3,0.1L1096.5,683.3z M1098.8,667.6v8.4h5c1.4,0,2.5-0.4,3.4-1.1s1.3-1.8,1.3-3.1s-0.4-2.3-1.3-3.1    c-0.9-0.8-2-1.1-3.4-1.1L1098.8,667.6z"
   id="path184"
   style="fill:#a16ae8;fill-opacity:1" />
		<path
   d="M1146.4,665.3c0.1,0,0.2,0,0.3,0.1s0.1,0.2,0.1,0.3V683c0,0.1,0,0.2-0.1,0.3c-0.1,0.1-0.2,0.1-0.3,0.1h-1.9    c-0.1,0-0.2,0-0.3-0.1c-0.1-0.1-0.1-0.2-0.1-0.3v-13h-0.1c-0.3,0.7-0.6,1.3-1.1,2l-6.4,9.1l-6.4-9.1c-0.2-0.3-0.4-0.6-0.6-0.9    s-0.3-0.6-0.4-0.8l-0.1-0.3h-0.1v13c0,0.1,0,0.2-0.1,0.3c-0.1,0.1-0.2,0.1-0.3,0.1h-1.9c-0.1,0-0.2,0-0.3-0.1    c-0.1-0.1-0.1-0.2-0.1-0.3v-17.3c0-0.1,0-0.2,0.1-0.3s0.2-0.1,0.3-0.1h1.2c0.2,0,0.4,0.1,0.6,0.3l8,11.3h0.1l8-11.3    c0.2-0.2,0.3-0.3,0.6-0.3H1146.4z"
   id="path186"
   style="fill:#a16ae8;fill-opacity:1" />
		<path
   d="M1166,675.2v5.9h11.4c0.1,0,0.2,0.1,0.3,0.2c0.1,0.1,0.1,0.2,0.1,0.3v1.4c0,0.1-0.1,0.2-0.1,0.3c-0.1,0.1-0.2,0.1-0.3,0.1    h-13.7c-0.1,0-0.2,0-0.3-0.1c-0.1-0.1-0.1-0.2-0.1-0.3v-17.3c0-0.1,0-0.2,0.1-0.3s0.2-0.1,0.3-0.1h13.4c0.1,0,0.2,0.1,0.3,0.2    c0.1,0.1,0.2,0.2,0.2,0.3v1.4c0,0.1-0.1,0.2-0.2,0.3c-0.1,0.1-0.2,0.2-0.3,0.2H1166v5.3h10.2c0.1,0,0.2,0.1,0.3,0.2    s0.2,0.2,0.2,0.3v1.4c0,0.1-0.1,0.2-0.2,0.3s-0.2,0.2-0.3,0.2L1166,675.2z"
   id="path188"
   style="fill:#a16ae8;fill-opacity:1" />
		<path
   d="M1197,671c-0.2-0.2-0.4-0.5-0.6-0.7c-0.2-0.2-0.3-0.4-0.4-0.6l-0.2-0.2h-0.1V683c0,0.1,0,0.2-0.1,0.3    c-0.1,0.1-0.2,0.1-0.3,0.1h-1.9c-0.1,0-0.2,0-0.3-0.1c-0.1-0.1-0.1-0.2-0.1-0.3v-17.3c0-0.1,0-0.2,0.1-0.3s0.2-0.1,0.3-0.1h1.4    l11.8,12.1c0.2,0.2,0.5,0.5,0.7,0.8c0.2,0.3,0.4,0.5,0.5,0.6l0.2,0.2h0.1v-13.4c0-0.1,0-0.2,0.1-0.3c0.1-0.1,0.2-0.1,0.3-0.1h1.9    c0.1,0,0.2,0,0.3,0.1c0.1,0.1,0.1,0.2,0.1,0.3v17.3c0,0.1,0,0.2-0.1,0.3c-0.1,0.1-0.2,0.1-0.3,0.1h-1.4L1197,671z"
   id="path190"
   style="fill:#a16ae8;fill-opacity:1" />
		<path
   d="M1226,667.6c-0.1,0-0.2-0.1-0.3-0.2c-0.1-0.1-0.2-0.2-0.2-0.3v-1.4c0-0.1,0.1-0.2,0.2-0.3c0.1-0.1,0.2-0.2,0.3-0.2h16.9    c0.1,0,0.2,0.1,0.3,0.2c0.1,0.1,0.2,0.2,0.2,0.3v1.4c0,0.1-0.1,0.2-0.2,0.3c-0.1,0.1-0.2,0.2-0.3,0.2h-7.1V683    c0,0.1,0,0.2-0.1,0.3c-0.1,0.1-0.1,0.1-0.2,0.1h-1.9c-0.1,0-0.2,0-0.2-0.1s-0.1-0.2-0.1-0.3v-15.4H1226L1226,667.6z"
   id="path192"
   style="fill:#a16ae8;fill-opacity:1" />
	</g>
</g>
</svg>
